<svg xmlns="http://www.w3.org/2000/svg" width="27.991" height="22.249" viewBox="0 0 27.991 22.249">
  <g id="floating6_galeri" transform="translate(-991.66 -432.94)">
    <g id="Rectangle_5743" data-name="Rectangle 5743" transform="translate(991.66 432.94)">
      <g id="Group_20537" data-name="Group 20537">
        <path id="Path_484155" data-name="Path 484155" d="M1016.78,455.189H994.531a2.871,2.871,0,0,1-2.871-2.871V435.811a2.871,2.871,0,0,1,2.871-2.871h22.249a2.871,2.871,0,0,1,2.871,2.871v16.507A2.871,2.871,0,0,1,1016.78,455.189Zm-22.249-20.813a1.435,1.435,0,0,0-1.435,1.435v16.507a1.435,1.435,0,0,0,1.435,1.435h22.249a1.435,1.435,0,0,0,1.435-1.435V435.811a1.435,1.435,0,0,0-1.435-1.435Z" transform="translate(-991.66 -432.94)" fill="#c17a48"/>
      </g>
    </g>
    <g id="Polygon_15" data-name="Polygon 15" transform="translate(1003.331 440.869)">
      <g id="Group_20538" data-name="Group 20538">
        <path id="Path_484156" data-name="Path 484156" d="M1021.055,456.872l-6.5-11.449-5.67,9.94c-.258-.351-.473-.574-.958-1.22l5.381-9.428a1.435,1.435,0,0,1,2.5,0l6.5,11.449.256.45-1.263.667Z" transform="translate(-1007.922 -443.988)" fill="#c17a48"/>
      </g>
    </g>
    <g id="Path_484144" data-name="Path 484144" transform="translate(993.174 446.029)">
      <g id="Group_20539" data-name="Group 20539">
        <path id="Path_484157" data-name="Path 484157" d="M1000.15,452.612l-4.941,6.289h9.883l-4.942-6.289h0m0-1.435a1.428,1.428,0,0,1,1.129.548l4.941,6.289a1.435,1.435,0,0,1-1.129,2.323h-9.883a1.435,1.435,0,0,1-1.13-2.325l4.942-6.289A1.428,1.428,0,0,1,1000.15,451.177Z" transform="translate(-993.769 -451.177)" fill="#c17a48"/>
      </g>
    </g>
    <g id="Ellipse_1107" data-name="Ellipse 1107" transform="translate(997.402 437.964)">
      <g id="Group_20540" data-name="Group 20540">
        <path id="Path_484158" data-name="Path 484158" d="M1002.531,445.682a2.871,2.871,0,1,1,2.871-2.871A2.871,2.871,0,0,1,1002.531,445.682Zm0-4.306a1.435,1.435,0,1,0,1.435,1.435A1.435,1.435,0,0,0,1002.531,441.375Z" transform="translate(-999.66 -439.94)" fill="#c17a48"/>
      </g>
    </g>
  </g>
</svg>
